Coordinates
version=1
nRows=49
nColumns=12
inDegrees=yes

Units are S.I. units (second, meters, Newtons, ...)
Angles are in degrees

endheader
time	SC_y	SC_z	SC_x	AC_y	AC_z	AC_x	GH_y	GH_z	GH_yy	EL_x	PS_y
       0.0              -51.68         0.5046          33.28          61.68         -13.46         -1.833         -97.93         -13.42          157.2          73.33           57.6
   0.02793              -51.68         0.5063          33.28          61.67         -13.46         -1.831         -97.93         -13.41          157.2          73.34          57.59
   0.05586              -51.68         0.5081          33.28          61.67         -13.46          -1.83         -97.92         -13.39          157.2          73.35          57.59
   0.08378              -51.67         0.5101          33.27          61.67         -13.46         -1.828         -97.92         -13.38          157.2          73.36          57.58
    0.1117              -51.67         0.5121          33.27          61.67         -13.46         -1.827         -97.92         -13.36          157.1          73.36          57.57
    0.1396              -51.67         0.5143          33.27          61.66         -13.46         -1.825         -97.91         -13.34          157.1          73.37          57.56
    0.1676              -51.67         0.5167          33.27          61.66         -13.46         -1.823         -97.91         -13.33          157.1          73.38          57.55
    0.1955              -51.67         0.5192          33.27          61.66         -13.46         -1.821          -97.9         -13.31          157.1          73.39          57.54
    0.2234              -51.67         0.5219          33.26          61.66         -13.46         -1.819          -97.9         -13.28          157.1           73.4          57.53
    0.2513              -51.66         0.5248          33.26          61.65         -13.46         -1.817         -97.89         -13.26          157.0          73.42          57.52
    0.2793              -51.66         0.5279          33.26          61.65         -13.46         -1.814         -97.89         -13.24          157.0          73.43          57.51
    0.3072              -51.66         0.5312          33.26          61.65         -13.46         -1.811         -97.88         -13.21          157.0          73.44           57.5
    0.3351              -51.66         0.5348          33.25          61.64         -13.47         -1.808         -97.87         -13.18          157.0          73.46          57.48
    0.3631              -51.65         0.5387          33.25          61.64         -13.47         -1.805         -97.86         -13.15          156.9          73.47          57.47
     0.391              -51.65         0.5429          33.25          61.63         -13.47         -1.802         -97.86         -13.12          156.9          73.49          57.45
    0.4189              -51.65         0.5475          33.24          61.63         -13.47         -1.798         -97.85         -13.08          156.8          73.51          57.43
    0.4468              -51.64         0.5524          33.24          61.62         -13.47         -1.794         -97.84         -13.04          156.8          73.53          57.41
    0.4748              -51.64         0.5578          33.24          61.62         -13.47          -1.79         -97.83          -13.0          156.8          73.55          57.39
    0.5027              -51.64         0.5637          33.23          61.61         -13.47         -1.785         -97.81         -12.95          156.7          73.57          57.37
    0.5306              -51.63         0.5702          33.23          61.61         -13.48          -1.78          -97.8          -12.9          156.6           73.6          57.34
    0.5586              -51.63         0.5773          33.22           61.6         -13.48         -1.774         -97.79         -12.84          156.6          73.63          57.31
    0.5865              -51.62         0.5851          33.21          61.59         -13.48         -1.768         -97.77         -12.78          156.5          73.66          57.28
    0.6144              -51.62         0.5937          33.21          61.58         -13.48         -1.761         -97.76         -12.71          156.4           73.7          57.25
    0.6423              -51.61         0.6033           33.2          61.57         -13.48         -1.753         -97.74         -12.63          156.4          73.74          57.21
    0.6703               -51.6         0.6139          33.19          61.56         -13.49         -1.745         -97.72         -12.55          156.3          73.78          57.17
    0.6982              -51.59         0.6257          33.18          61.55         -13.49         -1.735         -97.69         -12.45          156.2          73.83          57.12
    0.7261              -51.58          0.639          33.17          61.53         -13.49         -1.725         -97.67         -12.35          156.0          73.88          57.07
     0.754              -51.57         0.6539          33.16          61.52          -13.5         -1.712         -97.64         -12.23          155.9          73.94          57.01
     0.782              -51.56         0.6708          33.14           61.5          -13.5         -1.699          -97.6         -12.09          155.8          74.01          56.94
    0.8099              -51.55         0.6899          33.13          61.48         -13.51         -1.683         -97.56         -11.94          155.6          74.09          56.87
    0.8378              -51.53         0.7118          33.11          61.46         -13.52         -1.666         -97.52         -11.76          155.4          74.18          56.78
    0.8658              -51.51         0.7369          33.09          61.43         -13.52         -1.646         -97.47         -11.56          155.2          74.28          56.68
    0.8937              -51.49         0.7658          33.07           61.4         -13.53         -1.622         -97.41         -11.33          154.9           74.4          56.57
    0.9216              -51.47         0.7995          33.04          61.36         -13.54         -1.595         -97.35         -11.06          154.7          74.54          56.43
    0.9495              -51.44         0.8389          33.01          61.32         -13.55         -1.563         -97.27         -10.75          154.3           74.7          56.28
    0.9775              -51.41         0.8853          32.97          61.27         -13.56         -1.526         -97.18         -10.37          153.9          74.89          56.09
     1.005              -51.37         0.9405          32.93          61.21         -13.58         -1.482         -97.07         -9.932          153.4          75.11          55.88
     1.033              -51.32          1.007          32.87          61.14          -13.6         -1.428         -96.94         -9.403          152.9          75.38          55.61
     1.061              -51.27          1.087          32.81          61.06         -13.62         -1.364         -96.78         -8.762          152.2          75.71           55.3
     1.089               -51.2          1.184          32.73          60.95         -13.65         -1.285         -96.59          -7.98          151.3          76.11          54.91
     1.117              -51.11          1.305          32.63          60.83         -13.68         -1.188         -96.35         -7.014          150.3           76.6          54.43
     1.145              -51.01          1.455          32.51          60.67         -13.72         -1.067         -96.05         -5.809          148.9          77.22          53.84
     1.173              -50.87          1.645          32.36          60.46         -13.78        -0.9138         -95.68         -4.292          147.3          77.99          53.09
     1.201               -50.7          1.886          32.17          60.21         -13.84        -0.7197          -95.2         -2.363          145.2          78.98          52.13
     1.229              -50.48          2.194          31.92          59.88         -13.93        -0.4712         -94.59         0.1055          142.5          80.24          50.91
     1.257               -50.2          2.589           31.6          59.46         -14.04        -0.1524         -93.81          3.274          139.1          81.85          49.35
     1.285              -49.85          3.095           31.2          58.92         -14.18         0.2549         -92.81          7.321          134.7          83.92          47.35
     1.313               -49.4           3.73          30.68          58.25         -14.36          0.767         -91.55          12.41          129.2          86.51          44.83
     1.341              -48.85          4.504          30.06          57.43         -14.57          1.391         -90.02          18.61          122.4          89.68          41.77
